<svg xmlns="http://www.w3.org/2000/svg" xmlns:xlink="http://www.w3.org/1999/xlink" viewBox="0 0 512 512"><style><![CDATA[.B{fill:#4bb9ec}.C{fill:#7e5c62}.D{fill:#5c546a}]]></style><path d="M487.78 484h-464V268h96l136-136 136.003 136h95.997z" fill="#e6be94"/><path d="M207.78 388h96v96h-96z" fill="#996459"/><path d="M301.78 356h-92a2 2 0 0 0-2 2v30h96v-30a2 2 0 0 0-2-2z" class="B"/><path d="M329.617 68l13.04-19.562a8.01 8.01 0 0 0 .398-8.211C341.663 37.625 338.953 36 336 36h-80c-4.422 0-8 3.578-8 8v48c0 4.422 3.578 8 8 8h80a8 8 0 0 0 7.055-4.227 8.01 8.01 0 0 0-.398-8.211L329.617 68z" fill="#ff4f19"/><path d="M256 140c-4.422 0-8-3.578-8-8V28c0-4.422 3.578-8 8-8s8 3.578 8 8v104c0 4.422-3.578 8-8 8z" class="D"/><path d="M288.4 168.938c1.234-2.992 4.156-4.938 7.4-4.938h152a8.01 8.01 0 0 1 6.75 3.703l56 88c1.57 2.47 1.664 5.586.266 8.148a8.01 8.01 0 0 1-7.016 4.148h-120c-2.125 0-4.156-.844-5.656-2.344l-88-88c-2.3-2.288-2.978-5.725-1.735-8.717zm-65 0c-1.235-2.993-4.157-4.938-7.4-4.938H64a8.01 8.01 0 0 0-6.75 3.703l-56 88c-1.57 2.47-1.664 5.586-.266 8.148A8.01 8.01 0 0 0 8 268h120c2.125 0 4.156-.844 5.656-2.344l88-88a7.99 7.99 0 0 0 1.735-8.718z" fill="#ff4f19"/><path d="M391.89 275.89a7.97 7.97 0 0 1-5.656-2.344L256 143.313 125.766 273.547a8 8 0 0 1-11.313-11.313l135.89-135.89a8 8 0 0 1 11.313 0l135.89 135.89a8 8 0 0 1 0 11.313 7.98 7.98 0 0 1-5.657 2.344z" fill="#e3001e"/><circle cx="256.001" cy="268" r="48" fill="#ffebb7"/><path d="M256 236c-4.422 0-8 3.578-8 8v16h-16c-4.422 0-8 3.578-8 8s3.578 8 8 8h24c4.422 0 8-3.578 8-8v-24c0-4.422-3.578-8-8-8z" class="D"/><path d="M375.78 320c0-11.046-8.954-20-20-20s-20 8.954-20 20a20.12 20.12 0 0 0 .403 4h-.403v32h40v-32h-.403c.263-1.293.403-2.63.403-4z" class="B"/><use xlink:href="#B" class="C"/><path d="M136 396h40v48h-40z" class="B"/><use xlink:href="#C" class="C"/><path d="M63.782 396h40v48h-40z" class="B"/><use xlink:href="#C" x="-72.22" class="C"/><path d="M408 396h40v48h-40z" class="B"/><use xlink:href="#C" x="272" class="C"/><path d="M335.782 396h40v48h-40z" class="B"/><use xlink:href="#C" x="199.78" class="C"/><use xlink:href="#D" class="B"/><use xlink:href="#B" x="71.78" class="C"/><use xlink:href="#D" x="-344" class="B"/><use xlink:href="#B" x="-272.22" class="C"/><use xlink:href="#D" x="-272.219" class="B"/><path d="M155.563 292c-15.438 0-28 12.562-28 28v36c0 4.422 3.578 8 8 8h40c4.422 0 8-3.578 8-8v-36c0-15.438-12.563-28-28-28zm0 16c6.617 0 12 5.383 12 12v4h-24v-4c0-6.617 5.382-12 12-12zm-12 40v-8h24v8h-24zM256 324c-30.88 0-56-25.12-56-56s25.12-56 56-56 56 25.12 56 56-25.12 56-56 56zm0-96c-22.055 0-40 17.943-40 40s17.945 40 40 40 40-17.943 40-40-17.945-40-40-40zm32 120h-64c-13.234 0-24 10.766-24 24v112c0 4.422 3.578 8 8 8s8-3.578 8-8v-88h31.78v88h16v-88H296v88c0 4.422 3.578 8 8 8s8-3.578 8-8V372c0-13.234-10.766-24-24-24zm8 32h-80v-8a8.01 8.01 0 0 1 8-8h64a8.01 8.01 0 0 1 8 8v8z" class="C"/><path d="M504 492H8c-4.422 0-8-3.578-8-8s3.578-8 8-8h496c4.422 0 8 3.578 8 8s-3.578 8-8 8z" class="D"/><defs ><path id="B" d="M356 292c-15.438 0-28 12.562-28 28v36c0 4.422 3.578 8 8 8h40c4.422 0 8-3.578 8-8v-36c0-15.438-12.562-28-28-28zm0 16c6.617 0 12 5.383 12 12v4h-24v-4c0-6.617 5.383-12 12-12zm-12 40v-8h24v8h-24z"/><path id="C" d="M176 388h-40c-4.422 0-8 3.578-8 8v48c0 4.422 3.578 8 8 8h40c4.422 0 8-3.578 8-8v-48c0-4.422-3.578-8-8-8zm-8 16v8h-24v-8h24zm-24 32v-8h24v8h-24z"/><path id="D" d="M447.563 320c0-11.046-8.954-20-20-20s-20 8.954-20 20a20.12 20.12 0 0 0 .403 4h-.403v32h40v-32h-.403a20.12 20.12 0 0 0 .403-4z"/></defs></svg>