<svg xmlns="http://www.w3.org/2000/svg" viewBox="0 0 310.59 130.78"><path d="M15.65 114.54a2.79 2.79.0 0 1 1.68 2.51v13.22a.45.45.0 0 1-.45.44h-3.26a.39.39.0 0 1-.3-.12.47.47.0 0 1-.12-.32v-12h-2.63v12a.45.45.0 0 1-.12.31.34.34.0 0 1-.3.13h-3a.44.44.0 0 1-.44-.44v-12H4.13v12a.39.39.0 0 1-.33.44H.45a.4.4.0 0 1-.45-.31v-15.64a.39.39.0 0 1 .33-.44h14.24a2.52 2.52.0 0 1 1.08.22zm16.35-.22a2.75 2.75.0 0 1 2.55 1.68 2.56 2.56.0 0 1 .23 1.06v13.22a.42.42.0 0 1-.42.44h-3.28a.45.45.0 0 1-.45-.44v-4.2a.44.44.0 0 0-.11-.31.38.38.0 0 0-.31-.13h-4.64a.45.45.0 0 0-.45.44v4.2a.38.38.0 0 1-.32.44h-3.35a.38.38.0 0 1-.45-.32v-13.34a2.75 2.75.0 0 1 .21-1.06 2.6 2.6.0 0 1 .59-.91 2.91 2.91.0 0 1 .91-.59 2.58 2.58.0 0 1 1.06-.22zm-1.4 7.8V118h-5.5v4.12zm18.92-7.67a.37.37.0 0 1 .13.31V128a2.58 2.58.0 0 1-.22 1.06 3 3 0 0 1-.59.91 2.47 2.47.0 0 1-.9.59 2.8 2.8.0 0 1-1.07.21h-7a2.8 2.8.0 0 1-1.07-.21 2.74 2.74.0 0 1-1.68-2.56v-5a.4.4.0 0 1 .33-.45h3.35a.41.41.0 0 1 .45.33v3.47a.41.41.0 0 0 .12.31.46.46.0 0 0 .32.11h3.4a.44.44.0 0 0 .31-.11.38.38.0 0 0 .13-.31v-11.6a.45.45.0 0 1 .12-.31.37.37.0 0 1 .31-.13h3.26a.39.39.0 0 1 .3.13zm14.83-.13a2.58 2.58.0 0 1 1.06.22 2.64 2.64.0 0 1 1.45 1.46 2.56 2.56.0 0 1 .23 1.06v10.9a2.64 2.64.0 0 1-.23 1.07 2.78 2.78.0 0 1-.58.9 2.51 2.51.0 0 1-.91.59 2.54 2.54.0 0 1-1.06.21h-8.26a2.61 2.61.0 0 1-1.05-.22 2.71 2.71.0 0 1-1.68-2.5v-10.9a2.8 2.8.0 0 1 .21-1.07 2.45 2.45.0 0 1 .58-.9 2.91 2.91.0 0 1 .91-.59 2.55 2.55.0 0 1 1.06-.22zm-1.4 4h-5.5v8.44H63zm22.1 12.03a.22.22.0 0 1 0 .27.27.27.0 0 1-.25.11h-3.7a.7.7.0 0 1-.37-.11.75.75.0 0 1-.29-.27L78 125.9a.17.17.0 0 0-.17-.09H75a.1.1.0 0 0-.12.08.0.0.0 0 0 0 0v4.36a.38.38.0 0 1-.34.43H71.2a.39.39.0 0 1-.44-.32.24.24.0 0 1 0-.12v-15.48a.38.38.0 0 1 .32-.44H81.8a2.62 2.62.0 0 1 1.06.22 2.78 2.78.0 0 1 1.45 1.46 2.58 2.58.0 0 1 .22 1.06v6.16a2.66 2.66.0 0 1-.53 1.61 2.58 2.58.0 0 1-1.35 1h-.07c-.1.0-.14.08-.08.14zm-4.66-12.2h-5.65v4h5.65zm26.72 8.6a.39.39.0 0 1 .31.12.47.47.0 0 1 .12.32v3.1a.45.45.0 0 1-.12.31.37.37.0 0 1-.31.13H97a.4.4.0 0 1-.45-.32v-15.64a.39.39.0 0 1 .33-.44h3.35a.39.39.0 0 1 .44.33.2.2.0 0 1 0 .11v11.56a.4.4.0 0 0 .13.31.47.47.0 0 0 .32.12zm15.16-12.3a.4.4.0 0 1 .13.31v2.95a.37.37.0 0 1-.13.31.45.45.0 0 1-.31.12h-7.86a.09.09.0 0 0-.11.08v2.55c0 .06.0.1.1.1h6.7a.37.37.0 0 1 .3.13.45.45.0 0 1 .12.31v2.35a.45.45.0 0 1-.12.31.37.37.0 0 1-.3.13h-6.7a.1.1.0 0 0-.11.08.0.0.0 0 0 0 0v2.53a.09.09.0 0 0 .07.12H122a.44.44.0 0 1 .44.43v3a.43.43.0 0 1-.43.44h-11.7a.4.4.0 0 1-.45-.32v-15.6a.45.45.0 0 1 .45-.44H122a.42.42.0 0 1 .28.13zm14.87-.13a2.6 2.6.0 0 1 1.07.22 2.69 2.69.0 0 1 1.46 1.45 2.55 2.55.0 0 1 .22 1.06v13.22a.42.42.0 0 1-.42.44h-3.3a.44.44.0 0 1-.44-.44v-4.2a.45.45.0 0 0-.12-.31.37.37.0 0 0-.31-.13h-4.57a.45.45.0 0 0-.45.44v4.2a.39.39.0 0 1-.33.44h-3.35a.38.38.0 0 1-.44-.32.24.24.0 0 1 0-.12v-13.2a2.75 2.75.0 0 1 .21-1.06 2.6 2.6.0 0 1 .59-.91 2.91 2.91.0 0 1 .91-.59 2.55 2.55.0 0 1 1.06-.22zm-1.4 7.8V118h-5.5v4.12zm21.45-.22a.41.41.0 0 1 .12.32V128a2.58 2.58.0 0 1-.22 1.06 3.21 3.21.0 0 1-.58.91 2.6 2.6.0 0 1-.91.59 2.78 2.78.0 0 1-1.06.21h-8.3a2.73 2.73.0 0 1-2.74-2.74v-10.9a2.78 2.78.0 0 1 .21-1.06 2.44 2.44.0 0 1 .58-.91 3 3 0 0 1 .9-.59 2.81 2.81.0 0 1 1.07-.22H156a.45.45.0 0 1 .45.45v3.1a.45.45.0 0 1-.45.45h-7.85a.47.47.0 0 0-.32.12.44.44.0 0 0-.13.31v7.6a.42.42.0 0 0 .13.3.43.43.0 0 0 .32.12h4.64a.4.4.0 0 0 .42-.38v-4.14a.42.42.0 0 1 .42-.44h3.28a.43.43.0 0 1 .29.08zm17.3-7.45a.44.44.0 0 1 .13.31V128a2.59 2.59.0 0 1-.23 1.06 3 3 0 0 1-.58.91 2.6 2.6.0 0 1-.91.59 2.8 2.8.0 0 1-1.07.21h-8.3a2.78 2.78.0 0 1-1.06-.21 2.75 2.75.0 0 1-1.47-1.46 2.8 2.8.0 0 1-.21-1.07v-13.27a.39.39.0 0 1 .33-.44h3.35a.39.39.0 0 1 .44.33.2.2.0 0 1 0 .11v11.56a.4.4.0 0 0 .13.31.47.47.0 0 0 .32.12H170a.42.42.0 0 0 .3-.12.37.37.0 0 0 .12-.31v-11.56a.45.45.0 0 1 .45-.44h3.26a.39.39.0 0 1 .36.13zm16.23.0a.44.44.0 0 1 .13.31v2.95a.4.4.0 0 1-.13.31.47.47.0 0 1-.32.12h-7.85a.1.1.0 0 0-.12.08v2.6c0 .06.0.1.12.1h6.7a.39.39.0 0 1 .3.13.45.45.0 0 1 .12.31v2.35a.45.45.0 0 1-.12.31.39.39.0 0 1-.3.13h-6.7a.11.11.0 0 0-.12.08v2.57a.1.1.0 0 0 .08.12h7.9a.45.45.0 0 1 .45.43v3a.44.44.0 0 1-.43.44h-11.66a.39.39.0 0 1-.45-.32.24.24.0 0 1 0-.12v-15.57a.45.45.0 0 1 .45-.44h11.64a.42.42.0 0 1 .32.13zm25.15-.13a.42.42.0 0 1 .44.42v15.54a.43.43.0 0 1-.43.44h-3.27a.45.45.0 0 1-.45-.44v-5.45a.4.4.0 0 0-.38-.42h-4.67a.45.45.0 0 0-.32.12.37.37.0 0 0-.13.31v5.45a.39.39.0 0 1-.33.44.21.21.0 0 1-.11.0H203a.39.39.0 0 1-.44-.33.2.2.0 0 1 0-.11v-15.53a.39.39.0 0 1 .33-.44h3.35a.39.39.0 0 1 .44.33.2.2.0 0 1 0 .11V120a.39.39.0 0 0 .33.44h4.75a.39.39.0 0 0 .31-.12.47.47.0 0 0 .12-.32v-5.25a.45.45.0 0 1 .45-.44h3.25zm15.18.0a2.6 2.6.0 0 1 1.07.22 2.69 2.69.0 0 1 1.46 1.45 2.55 2.55.0 0 1 .22 1.06v13.22a.42.42.0 0 1-.42.44h-3.28a.44.44.0 0 1-.44-.44v-4.2a.45.45.0 0 0-.12-.31.37.37.0 0 0-.31-.13h-4.65a.44.44.0 0 0-.44.44v4.2a.39.39.0 0 1-.33.44h-3.35a.39.39.0 0 1-.45-.32v-13.33a2.75 2.75.0 0 1 .21-1.06 2.6 2.6.0 0 1 .59-.91 3 3 0 0 1 .91-.59 2.62 2.62.0 0 1 1.06-.22zm-1.4 7.8V118h-5.5v4.12zm12.02-3.7a.39.39.0 0 0-.12.31v7.6a.39.39.0 0 0 .12.31.47.47.0 0 0 .32.12h7.53a.42.42.0 0 1 .44.42v3.12a.42.42.0 0 1-.42.44h-9.37a2.71 2.71.0 0 1-1.06-.21 2.6 2.6.0 0 1-.91-.59 2.92 2.92.0 0 1-.79-2v-10.86a2.71 2.71.0 0 1 .21-1.06 2.44 2.44.0 0 1 .58-.91 2.91 2.91.0 0 1 .91-.59 2.55 2.55.0 0 1 1.06-.22h9.35a.44.44.0 0 1 .44.43v3.1a.44.44.0 0 1-.42.45H242a.45.45.0 0 0-.32.14zm21.32 2.8a.12.12.0 0 0 0 .16l5.44 9a.22.22.0 0 1 0 .27.27.27.0 0 1-.25.11h-3.9a.7.7.0 0 1-.37-.11.66.66.0 0 1-.28-.27l-3.5-6.4c0-.1-.1-.1-.12.0l-1.94 2.13a.9.9.0 0 0-.2.34 1.1 1.1.0 0 0-.08.4v3.47a.41.41.0 0 1-.33.45h-3.28a.39.39.0 0 1-.44-.33.24.24.0 0 1 0-.12v-15.58a.39.39.0 0 1 .33-.44h3.35a.39.39.0 0 1 .44.33.2.2.0 0 1 0 .11v7l6.05-7.08a1 1 0 0 1 .26-.27.93.93.0 0 1 .4-.09h3.9c.13.0.2.0.23.1s0 .15-.08.24zm12.65 9.05a.38.38.0 0 1-.32.44H272a.39.39.0 0 1-.45-.32v-15.64a.39.39.0 0 1 .33-.44h3.35a.39.39.0 0 1 .44.33.2.2.0 0 1 0 .11zm15.75-15.74a2.76 2.76.0 0 1 1.46 1.45 2.57 2.57.0 0 1 .21 1.06v13.22a.42.42.0 0 1-.42.44h-3.24a.39.39.0 0 1-.31-.12.47.47.0 0 1-.12-.32v-11.55a.37.37.0 0 0-.13-.31.45.45.0 0 0-.31-.12h-4.64a.47.47.0 0 0-.32.12.4.4.0 0 0-.13.31v11.56a.39.39.0 0 1-.33.44h-3.35a.39.39.0 0 1-.44-.32.24.24.0 0 1 0-.12v-15.52a.39.39.0 0 1 .33-.44h10.7a2.45 2.45.0 0 1 1.03.22zm19 7.36a.42.42.0 0 1 .13.32V128a2.59 2.59.0 0 1-.23 1.06 2.82 2.82.0 0 1-.58.91 2.51 2.51.0 0 1-.91.59 2.71 2.71.0 0 1-1.06.21h-8.3a2.78 2.78.0 0 1-1.06-.21 2.74 2.74.0 0 1-1.64-2.56v-10.9a2.8 2.8.0 0 1 .25-1.1 2.45 2.45.0 0 1 .58-.9 2.91 2.91.0 0 1 .91-.59 2.55 2.55.0 0 1 1.06-.22h9.68a.44.44.0 0 1 .44.44v3.1a.44.44.0 0 1-.44.44h-7.86a.45.45.0 0 0-.31.12.37.37.0 0 0-.13.31v7.6a.37.37.0 0 0 .13.31.4.4.0 0 0 .31.11h4.6a.4.4.0 0 0 .42-.38v-4.14a.42.42.0 0 1 .42-.44h3.28a.43.43.0 0 1 .33.15z" fill="#242425"/><path d="M98.85 1.4a17.32 17.32.0 0 1 9.15 9.16 16.51 16.51.0 0 1 1.41 6.68v86.06a2.78 2.78.0 0 1-2.75 2.8H86a2.43 2.43.0 0 1-1.92-.82 2.82 2.82.0 0 1-.74-2V25.12H66.8v78.22a2.87 2.87.0 0 1-.74 2 2.52 2.52.0 0 1-1.93.82H45.47a2.78 2.78.0 0 1-2.82-2.74v-78.3H26.07v78.22a2.49 2.49.0 0 1-2.82 2.81H2.82A2.49 2.49.0 0 1 0 103.34V2.8A2.49 2.49.0 0 1 2.82.0h89.3a16.46 16.46.0 0 1 6.74 1.41z" fill="#e73427"/><path d="M199.2 80.38a2.69 2.69.0 0 1 2 .83 2.89 2.89.0 0 1 .78 2.05v20a2.83 2.83.0 0 1-.78 2 2.67 2.67.0 0 1-2 .84h-70.5c-2 0-3-1-3-2.88V2.88c0-1.92 1-2.88 3-2.88h21.64c2 0 3 1 3 2.88v74.77a2.49 2.49.0 0 0 .91 2 3.09 3.09.0 0 0 2.11.77z" fill="#1d539f"/><path d="M307.54.0a2.94 2.94.0 0 1 2.14.84 2.76 2.76.0 0 1 .91 2.05v100.68a2.76 2.76.0 0 1-.91 2.05 2.94 2.94.0 0 1-2.14.84h-21.92a2.93 2.93.0 0 1-2.13-.84 2.69 2.69.0 0 1-.91-2.05V68.44a2.63 2.63.0 0 0-.79-2 2.82 2.82.0 0 0-2.05-.76H249a3.09 3.09.0 0 0-2.13.76 2.5 2.5.0 0 0-.91 2v35.13c0 1.92-1 2.9-3 2.9H221.2c-2 0-3-1-3-2.9V2.9c0-1.93 1-2.9 3-2.9H243c2 0 3 1 3 2.9V37c0 1.92 1 2.88 3 2.88h30.8a2.74 2.74.0 0 0 2.06-.83 2.93 2.93.0 0 0 .79-2V2.9a2.71 2.71.0 0 1 .9-2.05 2.92 2.92.0 0 1 2.06-.84z" fill="#f8b92a"/></svg>